<?xml version="1.0" standalone="no"?>
<!DOCTYPE svg PUBLIC "-//W3C//DTD SVG 20010904//EN"
 "http://www.w3.org/TR/2001/REC-SVG-20010904/DTD/svg10.dtd">
<svg version="1.0" xmlns="http://www.w3.org/2000/svg"
 width="192.000000pt" height="192.000000pt" viewBox="0 0 192.000000 192.000000"
 preserveAspectRatio="xMidYMid meet">
<metadata>
Created by potrace 1.14, written by Peter Selinger 2001-2017
</metadata>
<g transform="translate(0.000000,192.000000) scale(0.100000,-0.100000)"
fill="#000000" stroke="none">
<path d="M0 776 l0 -776 715 0 c393 0 715 3 715 6 0 3 -4 14 -10 24 -8 15 -7
17 12 12 14 -3 19 -1 14 6 -3 6 -1 14 5 18 8 4 9 3 5 -4 -4 -7 -1 -12 8 -12 9
0 16 -4 16 -10 0 -5 -5 -10 -11 -10 -5 0 -7 -5 -4 -10 4 -6 10 -8 15 -5 5 3
11 1 15 -5 10 -15 23 -12 28 8 4 16 5 16 6 0 1 -11 9 -18 21 -18 13 0 17 5 14
14 -4 11 0 13 15 9 12 -3 21 -9 21 -14 0 -4 72 -8 160 -8 l160 -1 -2 258 -3
257 -30 1 c-16 0 -43 6 -60 13 -16 7 -59 14 -95 15 -67 3 -100 12 -100 27 0 5
-8 9 -18 9 -10 0 -27 8 -38 19 -51 47 -101 49 -106 3 -5 -40 -23 -36 -44 8
-14 30 -27 43 -46 47 -16 3 -28 9 -28 14 0 17 -18 9 -51 -23 -19 -18 -40 -33
-47 -34 -31 -6 -42 -15 -42 -36 0 -21 -45 -58 -71 -58 -6 0 -38 18 -71 40 -60
39 -61 40 -30 40 85 0 159 32 166 72 1 7 7 23 14 35 7 13 10 39 7 60 -3 21 -2
51 3 68 8 27 14 31 62 38 30 4 57 11 60 15 3 4 42 8 88 8 123 3 153 14 119 48
-15 16 -53 25 -132 32 -33 3 -78 12 -100 19 -28 9 -44 10 -52 3 -9 -7 -18 -7
-28 2 -17 14 -19 29 -6 49 12 18 178 17 461 -4 107 -8 201 -15 208 -15 9 0 12
41 12 171 0 159 -1 171 -17 164 -10 -4 -38 -14 -63 -21 -25 -8 -54 -18 -65
-23 -53 -24 -122 -44 -173 -51 -32 -5 -106 -17 -167 -29 -146 -28 -175 -27
-211 4 -16 14 -62 55 -102 90 -99 87 -104 90 -132 60 -12 -13 -28 -21 -36 -18
-8 3 -21 -1 -30 -8 -17 -14 -54 -22 -99 -20 -32 0 -65 31 -65 60 0 9 -11 29
-24 46 -20 25 -26 27 -39 17 -10 -9 -17 -10 -22 -2 -4 7 -12 7 -26 0 -13 -8
-36 -6 -80 5 l-62 16 -36 -29 c-42 -34 -110 -72 -128 -72 -6 0 -27 9 -45 19
-18 10 -51 22 -73 26 -21 4 -56 15 -77 26 -20 10 -44 19 -53 19 -8 0 -33 16
-55 36 l-40 36 0 -776z m385 604 c-3 -5 -13 -10 -21 -10 -8 0 -12 5 -9 10 3 6
13 10 21 10 8 0 12 -4 9 -10z m453 -278 c2 -6 13 -6 32 1 24 9 35 8 58 -5 21
-13 49 -17 109 -15 91 1 101 -3 145 -72 33 -53 35 -67 9 -76 -10 -3 -25 -19
-31 -36 -11 -25 -10 -36 2 -63 l16 -32 -144 3 c-108 2 -158 8 -199 21 -30 11
-55 15 -55 10 0 -4 -16 -8 -36 -8 -19 0 -44 -5 -56 -11 -46 -25 -28 31 22 66
46 32 52 45 35 69 -11 14 -18 15 -33 7 -15 -8 -23 -7 -32 4 -8 9 -21 13 -36 9
-32 -8 -31 12 1 50 14 16 25 32 25 36 0 4 17 19 38 34 31 23 45 27 82 23 24
-3 46 -10 48 -15z m111 -447 c11 -25 24 -45 28 -45 8 0 33 -47 33 -62 0 -12
-78 -10 -102 3 -18 10 -19 17 -13 67 6 49 18 82 31 82 2 0 12 -20 23 -45z
m226 12 c-4 -14 -14 -28 -22 -32 -24 -9 -25 -1 -3 23 11 12 20 27 20 33 0 7 2
10 5 7 4 -3 3 -17 0 -31z m-502 -57 c17 -5 53 -10 81 -10 l51 -1 -24 -19 c-34
-29 -67 -34 -113 -19 -42 13 -69 42 -62 65 14 48 17 50 27 22 6 -16 23 -32 40
-38z m-3 40 c6 -11 7 -20 2 -20 -6 0 -12 9 -15 20 -3 11 -3 20 -1 20 2 0 8 -9
14 -20z m85 -20 c27 -7 25 -8 -17 -9 -27 0 -48 4 -48 9 0 11 21 11 65 0z m342
-6 c-3 -3 -12 -4 -19 -1 -8 3 -5 6 6 6 11 1 17 -2 13 -5z m-541 -72 c-12 -12
-18 8 -10 35 l8 28 4 -28 c2 -16 1 -31 -2 -35z m309 28 c9 -15 -3 -30 -20 -24
-7 3 -11 12 -8 20 6 16 19 18 28 4z m-5 -160 c0 -13 -11 -13 -30 0 -12 8 -11
10 8 10 12 0 22 -4 22 -10z m140 0 c0 -20 -121 -21 -128 -2 -3 10 11 13 62 11
36 -1 66 -5 66 -9z m26 -122 c-10 -50 -28 -61 -98 -62 -52 -1 -69 3 -98 24
l-35 25 95 7 c70 5 98 10 105 22 19 30 38 19 31 -16z m598 -274 c3 -8 2 -12
-4 -9 -6 3 -10 10 -10 16 0 14 7 11 14 -7z"/>
</g>
</svg>
